<mxfile host="app.diagrams.net" agent="Mozilla/5.0 (Windows NT 10.0; Win64; x64) AppleWebKit/537.36 (KHTML, like Gecko) Chrome/137.0.0.0 Safari/537.36" version="27.1.6">
  <diagram name="PÃ¡gina-1" id="bUz74yoLnu7ht94QflnF">
    <mxGraphModel grid="1" page="1" gridSize="10" guides="1" tooltips="1" connect="1" arrows="1" fold="1" pageScale="1" pageWidth="827" pageHeight="1169" math="0" shadow="0">
      <root>
        <mxCell id="0" />
        <mxCell id="1" parent="0" />
        <mxCell id="94_enlfXILWbWIfnMd43-1" value="" style="rounded=0;whiteSpace=wrap;html=1;" vertex="1" parent="1">
          <mxGeometry x="120" y="60" width="120" height="60" as="geometry" />
        </mxCell>
        <mxCell id="94_enlfXILWbWIfnMd43-2" value="" style="rounded=0;whiteSpace=wrap;html=1;" vertex="1" parent="1">
          <mxGeometry x="380" y="60" width="120" height="60" as="geometry" />
        </mxCell>
        <mxCell id="94_enlfXILWbWIfnMd43-3" value="" style="rounded=0;whiteSpace=wrap;html=1;" vertex="1" parent="1">
          <mxGeometry x="640" y="60" width="120" height="60" as="geometry" />
        </mxCell>
        <mxCell id="94_enlfXILWbWIfnMd43-4" value="" style="endArrow=none;dashed=1;html=1;rounded=0;entryX=0.5;entryY=1;entryDx=0;entryDy=0;" edge="1" parent="1" target="94_enlfXILWbWIfnMd43-1">
          <mxGeometry width="50" height="50" relative="1" as="geometry">
            <mxPoint x="180" y="290" as="sourcePoint" />
            <mxPoint x="450" y="490" as="targetPoint" />
            <Array as="points" />
          </mxGeometry>
        </mxCell>
        <mxCell id="94_enlfXILWbWIfnMd43-5" value="" style="endArrow=none;dashed=1;html=1;rounded=0;entryX=0.5;entryY=1;entryDx=0;entryDy=0;" edge="1" parent="1" source="94_enlfXILWbWIfnMd43-13">
          <mxGeometry width="50" height="50" relative="1" as="geometry">
            <mxPoint x="439" y="880" as="sourcePoint" />
            <mxPoint x="439" y="120" as="targetPoint" />
            <Array as="points" />
          </mxGeometry>
        </mxCell>
        <mxCell id="94_enlfXILWbWIfnMd43-6" value="" style="endArrow=none;dashed=1;html=1;rounded=0;entryX=0.5;entryY=1;entryDx=0;entryDy=0;" edge="1" parent="1" source="94_enlfXILWbWIfnMd43-146">
          <mxGeometry width="50" height="50" relative="1" as="geometry">
            <mxPoint x="699" y="440" as="sourcePoint" />
            <mxPoint x="699" y="120" as="targetPoint" />
            <Array as="points" />
          </mxGeometry>
        </mxCell>
        <mxCell id="94_enlfXILWbWIfnMd43-7" value="" style="endArrow=classic;html=1;rounded=0;" edge="1" parent="1">
          <mxGeometry width="50" height="50" relative="1" as="geometry">
            <mxPoint x="190" y="180" as="sourcePoint" />
            <mxPoint x="440" y="180" as="targetPoint" />
            <Array as="points">
              <mxPoint x="250" y="180" />
            </Array>
          </mxGeometry>
        </mxCell>
        <mxCell id="94_enlfXILWbWIfnMd43-8" value="1. Escribir palabra clave" style="text;strokeColor=none;fillColor=none;align=left;verticalAlign=middle;spacingLeft=4;spacingRight=4;overflow=hidden;points=[[0,0.5],[1,0.5]];portConstraint=eastwest;rotatable=0;whiteSpace=wrap;html=1;" vertex="1" parent="1">
          <mxGeometry x="240" y="150" width="140" height="30" as="geometry" />
        </mxCell>
        <mxCell id="94_enlfXILWbWIfnMd43-14" value="" style="endArrow=none;dashed=1;html=1;rounded=0;entryX=0.5;entryY=1;entryDx=0;entryDy=0;" edge="1" parent="1" source="94_enlfXILWbWIfnMd43-226" target="94_enlfXILWbWIfnMd43-13">
          <mxGeometry width="50" height="50" relative="1" as="geometry">
            <mxPoint x="440" y="330" as="sourcePoint" />
            <mxPoint x="439" y="120" as="targetPoint" />
            <Array as="points" />
          </mxGeometry>
        </mxCell>
        <mxCell id="94_enlfXILWbWIfnMd43-13" value="" style="html=1;points=[[0,0,0,0,5],[0,1,0,0,-5],[1,0,0,0,5],[1,1,0,0,-5]];perimeter=orthogonalPerimeter;outlineConnect=0;targetShapes=umlLifeline;portConstraint=eastwest;newEdgeStyle={&quot;curved&quot;:0,&quot;rounded&quot;:0};" vertex="1" parent="1">
          <mxGeometry x="435" y="180" width="10" height="30" as="geometry" />
        </mxCell>
        <mxCell id="94_enlfXILWbWIfnMd43-16" value="" style="endArrow=none;dashed=1;html=1;rounded=0;" edge="1" parent="1">
          <mxGeometry width="50" height="50" relative="1" as="geometry">
            <mxPoint x="180" y="390" as="sourcePoint" />
            <mxPoint x="180" y="290" as="targetPoint" />
            <Array as="points" />
          </mxGeometry>
        </mxCell>
        <mxCell id="94_enlfXILWbWIfnMd43-21" value="" style="endArrow=none;dashed=1;html=1;rounded=0;" edge="1" parent="1" target="DGPpsZztQ0GpuKEmtI43-4">
          <mxGeometry width="50" height="50" relative="1" as="geometry">
            <mxPoint x="439.47" y="410" as="sourcePoint" />
            <mxPoint x="439.47" y="350" as="targetPoint" />
            <Array as="points" />
          </mxGeometry>
        </mxCell>
        <mxCell id="94_enlfXILWbWIfnMd43-24" value="Usuario" style="text;strokeColor=none;fillColor=none;align=left;verticalAlign=middle;spacingLeft=4;spacingRight=4;overflow=hidden;points=[[0,0.5],[1,0.5]];portConstraint=eastwest;rotatable=0;whiteSpace=wrap;html=1;" vertex="1" parent="1">
          <mxGeometry x="152.5" y="75" width="50" height="30" as="geometry" />
        </mxCell>
        <mxCell id="94_enlfXILWbWIfnMd43-25" value="&lt;font style=&quot;vertical-align: inherit;&quot;&gt;&lt;font style=&quot;vertical-align: inherit;&quot;&gt;Sistema&lt;/font&gt;&lt;/font&gt;" style="text;strokeColor=none;fillColor=none;align=left;verticalAlign=middle;spacingLeft=4;spacingRight=4;overflow=hidden;points=[[0,0.5],[1,0.5]];portConstraint=eastwest;rotatable=0;whiteSpace=wrap;html=1;" vertex="1" parent="1">
          <mxGeometry x="414" y="75" width="150" height="30" as="geometry" />
        </mxCell>
        <mxCell id="94_enlfXILWbWIfnMd43-26" value="&lt;font style=&quot;vertical-align: inherit;&quot;&gt;&lt;font style=&quot;vertical-align: inherit;&quot;&gt;Base de Datos&lt;/font&gt;&lt;/font&gt;" style="text;strokeColor=none;fillColor=none;align=left;verticalAlign=middle;spacingLeft=4;spacingRight=4;overflow=hidden;points=[[0,0.5],[1,0.5]];portConstraint=eastwest;rotatable=0;whiteSpace=wrap;html=1;" vertex="1" parent="1">
          <mxGeometry x="655" y="75" width="90" height="30" as="geometry" />
        </mxCell>
        <mxCell id="94_enlfXILWbWIfnMd43-135" value="3. Validar texto" style="text;strokeColor=none;fillColor=none;align=left;verticalAlign=middle;spacingLeft=4;spacingRight=4;overflow=hidden;points=[[0,0.5],[1,0.5]];portConstraint=eastwest;rotatable=0;whiteSpace=wrap;html=1;" vertex="1" parent="1">
          <mxGeometry x="480" y="290" width="95" height="30" as="geometry" />
        </mxCell>
        <mxCell id="94_enlfXILWbWIfnMd43-141" value="" style="endArrow=none;dashed=1;html=1;rounded=0;" edge="1" parent="1" source="94_enlfXILWbWIfnMd43-222">
          <mxGeometry width="50" height="50" relative="1" as="geometry">
            <mxPoint x="180" y="620" as="sourcePoint" />
            <mxPoint x="180" y="390" as="targetPoint" />
            <Array as="points" />
          </mxGeometry>
        </mxCell>
        <mxCell id="94_enlfXILWbWIfnMd43-155" value="6. Mostrar mensaje: Sin resultados" style="text;strokeColor=none;fillColor=none;align=left;verticalAlign=middle;spacingLeft=4;spacingRight=4;overflow=hidden;points=[[0,0.5],[1,0.5]];portConstraint=eastwest;rotatable=0;whiteSpace=wrap;html=1;" vertex="1" parent="1">
          <mxGeometry x="205" y="490" width="230" height="30" as="geometry" />
        </mxCell>
        <mxCell id="94_enlfXILWbWIfnMd43-219" value="" style="html=1;verticalAlign=bottom;endArrow=open;endSize=8;curved=0;rounded=0;fontSize=12;entryX=1;entryY=0;entryDx=0;entryDy=5;entryPerimeter=0;align=left;dashed=1;" edge="1" parent="1" target="DGPpsZztQ0GpuKEmtI43-9">
          <mxGeometry x="0.0526" relative="1" as="geometry">
            <mxPoint x="440" y="615" as="sourcePoint" />
            <mxPoint x="187.5" y="620" as="targetPoint" />
            <mxPoint as="offset" />
          </mxGeometry>
        </mxCell>
        <mxCell id="94_enlfXILWbWIfnMd43-220" value="" style="endArrow=none;dashed=1;html=1;rounded=0;entryX=0.5;entryY=1;entryDx=0;entryDy=0;exitX=0.5;exitY=0;exitDx=0;exitDy=0;" edge="1" parent="1" source="DGPpsZztQ0GpuKEmtI43-13">
          <mxGeometry width="50" height="50" relative="1" as="geometry">
            <mxPoint x="699.47" y="680" as="sourcePoint" />
            <mxPoint x="699.47" y="390" as="targetPoint" />
            <Array as="points" />
          </mxGeometry>
        </mxCell>
        <mxCell id="94_enlfXILWbWIfnMd43-146" value="" style="html=1;points=[[0,0,0,0,5],[0,1,0,0,-5],[1,0,0,0,5],[1,1,0,0,-5]];perimeter=orthogonalPerimeter;outlineConnect=0;targetShapes=umlLifeline;portConstraint=eastwest;newEdgeStyle={&quot;curved&quot;:0,&quot;rounded&quot;:0};" vertex="1" parent="1">
          <mxGeometry x="695" y="360" width="10" height="30" as="geometry" />
        </mxCell>
        <mxCell id="94_enlfXILWbWIfnMd43-223" value="" style="endArrow=none;dashed=1;html=1;rounded=0;entryX=0;entryY=1;entryDx=0;entryDy=-5;entryPerimeter=0;" edge="1" parent="1" source="DGPpsZztQ0GpuKEmtI43-9" target="94_enlfXILWbWIfnMd43-222">
          <mxGeometry width="50" height="50" relative="1" as="geometry">
            <mxPoint x="180.5" y="780" as="sourcePoint" />
            <mxPoint x="182.5" y="560.0000000000002" as="targetPoint" />
            <Array as="points">
              <mxPoint x="175" y="570" />
            </Array>
          </mxGeometry>
        </mxCell>
        <mxCell id="94_enlfXILWbWIfnMd43-222" value="" style="html=1;points=[[0,0,0,0,5],[0,1,0,0,-5],[1,0,0,0,5],[1,1,0,0,-5]];perimeter=orthogonalPerimeter;outlineConnect=0;targetShapes=umlLifeline;portConstraint=eastwest;newEdgeStyle={&quot;curved&quot;:0,&quot;rounded&quot;:0};" vertex="1" parent="1">
          <mxGeometry x="175" y="510" width="10" height="30" as="geometry" />
        </mxCell>
        <mxCell id="94_enlfXILWbWIfnMd43-227" value="" style="endArrow=none;dashed=1;html=1;rounded=0;entryX=0.5;entryY=1;entryDx=0;entryDy=0;" edge="1" parent="1" source="DGPpsZztQ0GpuKEmtI43-4" target="94_enlfXILWbWIfnMd43-226">
          <mxGeometry width="50" height="50" relative="1" as="geometry">
            <mxPoint x="440" y="330" as="sourcePoint" />
            <mxPoint x="440" y="210" as="targetPoint" />
            <Array as="points" />
          </mxGeometry>
        </mxCell>
        <mxCell id="94_enlfXILWbWIfnMd43-226" value="" style="html=1;points=[[0,0,0,0,5],[0,1,0,0,-5],[1,0,0,0,5],[1,1,0,0,-5]];perimeter=orthogonalPerimeter;outlineConnect=0;targetShapes=umlLifeline;portConstraint=eastwest;newEdgeStyle={&quot;curved&quot;:0,&quot;rounded&quot;:0};" vertex="1" parent="1">
          <mxGeometry x="435" y="230" width="10" height="30" as="geometry" />
        </mxCell>
        <mxCell id="94_enlfXILWbWIfnMd43-229" value="" style="endArrow=classic;html=1;rounded=0;" edge="1" parent="1">
          <mxGeometry width="50" height="50" relative="1" as="geometry">
            <mxPoint x="450" y="360" as="sourcePoint" />
            <mxPoint x="700" y="360" as="targetPoint" />
          </mxGeometry>
        </mxCell>
        <mxCell id="94_enlfXILWbWIfnMd43-230" value="" style="endArrow=classic;html=1;rounded=0;" edge="1" parent="1">
          <mxGeometry width="50" height="50" relative="1" as="geometry">
            <mxPoint x="570" y="410" as="sourcePoint" />
            <mxPoint x="440" y="410" as="targetPoint" />
            <Array as="points">
              <mxPoint x="700" y="410" />
            </Array>
          </mxGeometry>
        </mxCell>
        <mxCell id="94_enlfXILWbWIfnMd43-231" value="5. Retornar resultados coincidentes" style="text;strokeColor=none;fillColor=none;align=left;verticalAlign=middle;spacingLeft=4;spacingRight=4;overflow=hidden;points=[[0,0.5],[1,0.5]];portConstraint=eastwest;rotatable=0;whiteSpace=wrap;html=1;" vertex="1" parent="1">
          <mxGeometry x="462.5" y="380" width="230" height="30" as="geometry" />
        </mxCell>
        <mxCell id="94_enlfXILWbWIfnMd43-233" value="" style="endArrow=none;dashed=1;html=1;rounded=0;entryX=0.5;entryY=1;entryDx=0;entryDy=0;exitX=0.5;exitY=0;exitDx=0;exitDy=0;" edge="1" parent="1" source="DGPpsZztQ0GpuKEmtI43-12" target="94_enlfXILWbWIfnMd43-232">
          <mxGeometry width="50" height="50" relative="1" as="geometry">
            <mxPoint x="440" y="680" as="sourcePoint" />
            <mxPoint x="440" y="330" as="targetPoint" />
            <Array as="points" />
          </mxGeometry>
        </mxCell>
        <mxCell id="94_enlfXILWbWIfnMd43-232" value="" style="html=1;points=[[0,0,0,0,5],[0,1,0,0,-5],[1,0,0,0,5],[1,1,0,0,-5]];perimeter=orthogonalPerimeter;outlineConnect=0;targetShapes=umlLifeline;portConstraint=eastwest;newEdgeStyle={&quot;curved&quot;:0,&quot;rounded&quot;:0};" vertex="1" parent="1">
          <mxGeometry x="435" y="410" width="10" height="30" as="geometry" />
        </mxCell>
        <mxCell id="94_enlfXILWbWIfnMd43-234" value="" style="endArrow=classic;html=1;rounded=0;dashed=1;" edge="1" parent="1">
          <mxGeometry width="50" height="50" relative="1" as="geometry">
            <mxPoint x="315" y="520" as="sourcePoint" />
            <mxPoint x="185" y="520" as="targetPoint" />
            <Array as="points">
              <mxPoint x="440" y="520" />
            </Array>
          </mxGeometry>
        </mxCell>
        <mxCell id="94_enlfXILWbWIfnMd43-236" value="7. Mostrar mensaje: Mostrar lista agrupada de resultados" style="text;strokeColor=none;fillColor=none;align=center;verticalAlign=middle;spacingLeft=4;spacingRight=4;overflow=hidden;points=[[0,0.5],[1,0.5]];portConstraint=eastwest;rotatable=0;whiteSpace=wrap;html=1;" vertex="1" parent="1">
          <mxGeometry x="217.5" y="580" width="175" height="30" as="geometry" />
        </mxCell>
        <mxCell id="DGPpsZztQ0GpuKEmtI43-1" value="2. Precionar buscar" style="text;strokeColor=none;fillColor=none;align=left;verticalAlign=middle;spacingLeft=4;spacingRight=4;overflow=hidden;points=[[0,0.5],[1,0.5]];portConstraint=eastwest;rotatable=0;whiteSpace=wrap;html=1;" vertex="1" parent="1">
          <mxGeometry x="240" y="210" width="140" height="30" as="geometry" />
        </mxCell>
        <mxCell id="DGPpsZztQ0GpuKEmtI43-3" value="" style="endArrow=classic;html=1;rounded=0;entryX=0;entryY=0;entryDx=0;entryDy=5;entryPerimeter=0;" edge="1" parent="1" target="94_enlfXILWbWIfnMd43-226">
          <mxGeometry width="50" height="50" relative="1" as="geometry">
            <mxPoint x="180" y="235" as="sourcePoint" />
            <mxPoint x="422.5" y="240" as="targetPoint" />
          </mxGeometry>
        </mxCell>
        <mxCell id="DGPpsZztQ0GpuKEmtI43-4" value="" style="html=1;points=[[0,0,0,0,5],[0,1,0,0,-5],[1,0,0,0,5],[1,1,0,0,-5]];perimeter=orthogonalPerimeter;outlineConnect=0;targetShapes=umlLifeline;portConstraint=eastwest;newEdgeStyle={&quot;curved&quot;:0,&quot;rounded&quot;:0};" vertex="1" parent="1">
          <mxGeometry x="435" y="290" width="10" height="30" as="geometry" />
        </mxCell>
        <mxCell id="DGPpsZztQ0GpuKEmtI43-6" value="" style="endArrow=classic;html=1;rounded=0;entryX=1;entryY=1;entryDx=0;entryDy=-5;entryPerimeter=0;exitX=1;exitY=0;exitDx=0;exitDy=5;exitPerimeter=0;edgeStyle=orthogonalEdgeStyle;" edge="1" parent="1">
          <mxGeometry width="50" height="50" relative="1" as="geometry">
            <mxPoint x="445.47" y="295" as="sourcePoint" />
            <mxPoint x="445.47" y="315" as="targetPoint" />
            <Array as="points">
              <mxPoint x="479.97" y="295" />
              <mxPoint x="479.97" y="315" />
            </Array>
          </mxGeometry>
        </mxCell>
        <mxCell id="DGPpsZztQ0GpuKEmtI43-7" value="4. Buscar entidades (Eventos, etc)" style="text;strokeColor=none;fillColor=none;align=left;verticalAlign=middle;spacingLeft=4;spacingRight=4;overflow=hidden;points=[[0,0.5],[1,0.5]];portConstraint=eastwest;rotatable=0;whiteSpace=wrap;html=1;" vertex="1" parent="1">
          <mxGeometry x="462.5" y="330" width="230" height="30" as="geometry" />
        </mxCell>
        <mxCell id="DGPpsZztQ0GpuKEmtI43-10" value="" style="endArrow=none;dashed=1;html=1;rounded=0;entryX=0.5;entryY=1;entryDx=0;entryDy=0;exitX=0.5;exitY=0;exitDx=0;exitDy=0;" edge="1" parent="1" source="DGPpsZztQ0GpuKEmtI43-11" target="DGPpsZztQ0GpuKEmtI43-9">
          <mxGeometry width="50" height="50" relative="1" as="geometry">
            <mxPoint x="178" y="760" as="sourcePoint" />
            <mxPoint x="178" y="550" as="targetPoint" />
            <Array as="points" />
          </mxGeometry>
        </mxCell>
        <mxCell id="DGPpsZztQ0GpuKEmtI43-9" value="" style="html=1;points=[[0,0,0,0,5],[0,1,0,0,-5],[1,0,0,0,5],[1,1,0,0,-5]];perimeter=orthogonalPerimeter;outlineConnect=0;targetShapes=umlLifeline;portConstraint=eastwest;newEdgeStyle={&quot;curved&quot;:0,&quot;rounded&quot;:0};" vertex="1" parent="1">
          <mxGeometry x="175" y="610" width="10" height="30" as="geometry" />
        </mxCell>
        <mxCell id="DGPpsZztQ0GpuKEmtI43-11" value="" style="rounded=0;whiteSpace=wrap;html=1;" vertex="1" parent="1">
          <mxGeometry x="120" y="700" width="120" height="60" as="geometry" />
        </mxCell>
        <mxCell id="DGPpsZztQ0GpuKEmtI43-12" value="" style="rounded=0;whiteSpace=wrap;html=1;" vertex="1" parent="1">
          <mxGeometry x="380" y="700" width="120" height="60" as="geometry" />
        </mxCell>
        <mxCell id="DGPpsZztQ0GpuKEmtI43-13" value="" style="rounded=0;whiteSpace=wrap;html=1;" vertex="1" parent="1">
          <mxGeometry x="640" y="700" width="120" height="60" as="geometry" />
        </mxCell>
        <mxCell id="DGPpsZztQ0GpuKEmtI43-14" value="Usuario" style="text;strokeColor=none;fillColor=none;align=left;verticalAlign=middle;spacingLeft=4;spacingRight=4;overflow=hidden;points=[[0,0.5],[1,0.5]];portConstraint=eastwest;rotatable=0;whiteSpace=wrap;html=1;" vertex="1" parent="1">
          <mxGeometry x="152.5" y="715" width="50" height="30" as="geometry" />
        </mxCell>
        <mxCell id="DGPpsZztQ0GpuKEmtI43-15" value="&lt;font style=&quot;vertical-align: inherit;&quot;&gt;&lt;font style=&quot;vertical-align: inherit;&quot;&gt;Sistema&lt;/font&gt;&lt;/font&gt;" style="text;strokeColor=none;fillColor=none;align=left;verticalAlign=middle;spacingLeft=4;spacingRight=4;overflow=hidden;points=[[0,0.5],[1,0.5]];portConstraint=eastwest;rotatable=0;whiteSpace=wrap;html=1;" vertex="1" parent="1">
          <mxGeometry x="414" y="715" width="150" height="30" as="geometry" />
        </mxCell>
        <mxCell id="DGPpsZztQ0GpuKEmtI43-16" value="&lt;font style=&quot;vertical-align: inherit;&quot;&gt;&lt;font style=&quot;vertical-align: inherit;&quot;&gt;Base de Datos&lt;/font&gt;&lt;/font&gt;" style="text;strokeColor=none;fillColor=none;align=left;verticalAlign=middle;spacingLeft=4;spacingRight=4;overflow=hidden;points=[[0,0.5],[1,0.5]];portConstraint=eastwest;rotatable=0;whiteSpace=wrap;html=1;" vertex="1" parent="1">
          <mxGeometry x="655" y="715" width="90" height="30" as="geometry" />
        </mxCell>
        <mxCell id="DGPpsZztQ0GpuKEmtI43-17" value="alt" style="shape=umlFrame;whiteSpace=wrap;html=1;pointerEvents=0;" vertex="1" parent="1">
          <mxGeometry x="163" y="450" width="547" height="210" as="geometry" />
        </mxCell>
        <mxCell id="DGPpsZztQ0GpuKEmtI43-18" value="[Sin resultados]" style="text;html=1;align=center;verticalAlign=middle;whiteSpace=wrap;rounded=0;" vertex="1" parent="1">
          <mxGeometry x="391.5" y="450" width="90" height="30" as="geometry" />
        </mxCell>
        <mxCell id="DGPpsZztQ0GpuKEmtI43-19" value="[Con resultados]" style="text;html=1;align=center;verticalAlign=middle;whiteSpace=wrap;rounded=0;" vertex="1" parent="1">
          <mxGeometry x="395" y="547.5" width="90" height="30" as="geometry" />
        </mxCell>
        <mxCell id="DGPpsZztQ0GpuKEmtI43-20" value="" style="endArrow=none;dashed=1;html=1;rounded=0;entryX=-0.001;entryY=0.442;entryDx=0;entryDy=0;exitX=1.008;exitY=0.431;exitDx=0;exitDy=0;entryPerimeter=0;exitPerimeter=0;" edge="1" parent="1" source="DGPpsZztQ0GpuKEmtI43-17" target="DGPpsZztQ0GpuKEmtI43-17">
          <mxGeometry width="50" height="50" relative="1" as="geometry">
            <mxPoint x="200" y="670" as="sourcePoint" />
            <mxPoint x="200" y="590" as="targetPoint" />
            <Array as="points" />
          </mxGeometry>
        </mxCell>
      </root>
    </mxGraphModel>
  </diagram>
</mxfile>
